HIERARCHY
ROOT joint_Root
{
	OFFSET 0.0 0.0 0.0
	CHANNELS 6 Xposition Yposition Zposition Zrotation Xrotation Yrotation 
	JOINT Hips
	{
		OFFSET 4.5925 91.4895 -427.239
		CHANNELS 6 Xposition Yposition Zposition Zrotation Xrotation Yrotation 
		JOINT Spine
		{
			OFFSET 15.7357 0.0 0.0
			CHANNELS 6 Xposition Yposition Zposition Zrotation Xrotation Yrotation 
			JOINT Chest
			{
				OFFSET 8.98455 -0.406207 0.0
				CHANNELS 6 Xposition Yposition Zposition Zrotation Xrotation Yrotation 
				JOINT Neck
				{
					OFFSET 16.3773 0.0 0.0
					CHANNELS 6 Xposition Yposition Zposition Zrotation Xrotation Yrotation 
					JOINT Head
					{
						OFFSET 6.45672 0.0 0.0
						CHANNELS 6 Xposition Yposition Zposition Zrotation Xrotation Yrotation 
						End Site
						{
							OFFSET 0.0 0.0 0.0
						}
					}
				}
				JOINT Shoulder_L
				{
					OFFSET 12.9942 -0.242716 4.98039
					CHANNELS 6 Xposition Yposition Zposition Zrotation Xrotation Yrotation 
					JOINT UpperArm_L
					{
						OFFSET 5.34809 0.0 0.0
						CHANNELS 6 Xposition Yposition Zposition Zrotation Xrotation Yrotation 
						JOINT LowerArm_L
						{
							OFFSET 24.3286 1.87007e-05 0.0
							CHANNELS 6 Xposition Yposition Zposition Zrotation Xrotation Yrotation 
							JOINT Hand_L
							{
								OFFSET 22.2916 0.0 0.0
								CHANNELS 6 Xposition Yposition Zposition Zrotation Xrotation Yrotation 
								End Site
								{
									OFFSET 0.0 0.0 0.0
								}
							}
						}
					}
				}
				JOINT Shoulder_R
				{
					OFFSET 12.9945 -0.242716 -4.98039
					CHANNELS 6 Xposition Yposition Zposition Zrotation Xrotation Yrotation 
					JOINT UpperArm_R
					{
						OFFSET -5.34813 0.0 0.0
						CHANNELS 6 Xposition Yposition Zposition Zrotation Xrotation Yrotation 
						JOINT LowerArm_R
						{
							OFFSET -24.3289 0.000322201 0.0
							CHANNELS 6 Xposition Yposition Zposition Zrotation Xrotation Yrotation 
							JOINT Hand_R
							{
								OFFSET -22.2915 -0.000108084 0.0
								CHANNELS 6 Xposition Yposition Zposition Zrotation Xrotation Yrotation 
								End Site
								{
									OFFSET 0.0 0.0 0.0
								}
							}
						}
					}
				}
			}
		}
		JOINT UpperLeg_L
		{
			OFFSET -2.19248 -6.46944 0.0
			CHANNELS 6 Xposition Yposition Zposition Zrotation Xrotation Yrotation 
			JOINT LowerLeg_L
			{
				OFFSET 39.0811 0.0 -1.23785e-05
				CHANNELS 6 Xposition Yposition Zposition Zrotation Xrotation Yrotation 
				JOINT Foot_L
				{
					OFFSET 40.9854 0.0 -1.26872e-05
					CHANNELS 6 Xposition Yposition Zposition Zrotation Xrotation Yrotation 
					JOINT Toes_L
					{
						OFFSET 11.7543 0.0 0.0
						CHANNELS 6 Xposition Yposition Zposition Zrotation Xrotation Yrotation 
						End Site
						{
							OFFSET 0.0 0.0 0.0
						}
					}
				}
			}
		}
		JOINT UpperLeg_R
		{
			OFFSET -2.19251 6.46944 0.0
			CHANNELS 6 Xposition Yposition Zposition Zrotation Xrotation Yrotation 
			JOINT LowerLeg_R
			{
				OFFSET -39.0811 -0.00228153 -0.0401928
				CHANNELS 6 Xposition Yposition Zposition Zrotation Xrotation Yrotation 
				JOINT Foot_R
				{
					OFFSET -40.9854 0.0 0.0
					CHANNELS 6 Xposition Yposition Zposition Zrotation Xrotation Yrotation 
					JOINT Toes_R
					{
						OFFSET -11.7543 0.0 0.0
						CHANNELS 6 Xposition Yposition Zposition Zrotation Xrotation Yrotation 
						End Site
						{
							OFFSET 0.0 0.0 0.0
						}
					}
				}
			}
		}
	}
}
MOTION
Frames:	8
Frame Time:	0.0333333
0.000000 0.000000 0.000000 0.000000 0.000000 -0.000000 -4.627750 91.270300 2.846940 90.112000 12.060200 2.522250 15.735700 0.000005 -0.000001 112.638000 85.924600 -115.722000 8.984550 -0.406207 -0.000000 -0.144733 3.349280 -6.160260 16.377300 -0.000001 -0.000001 8.023150 -8.067470 3.997070 6.456720 -0.000001 -0.000000 0.724554 -7.123010 -9.697790 12.994200 -0.242716 4.980390 -92.026300 5.521670 -69.812200 5.348090 -0.000007 -0.000001 -62.053100 23.000100 -8.548110 24.328600 0.000019 0.000005 7.181900 19.890200 -20.323000 22.291600 -0.000001 0.000005 14.377500 5.163080 3.628560 12.994500 -0.242716 -4.980390 94.106000 -10.859900 -69.142100 -5.348130 -0.000001 -0.000004 -50.948100 -61.060400 -99.670500 -24.328900 0.000322 -0.000009 -0.787651 -0.970228 -39.030500 -22.291500 -0.000108 -0.000004 16.465600 5.485860 -5.974560 -2.192480 -6.469440 -0.000000 -173.475000 -5.896570 -5.780600 39.081100 -0.000007 -0.000012 -0.203462 0.419989 25.848000 40.985400 -0.000006 -0.000013 -1.404900 13.547500 -67.894900 11.754300 -0.000000 0.000003 -0.000304 -0.002632 -16.675600 -2.192510 6.469440 -0.000001 177.485000 32.116700 179.172000 -39.081100 -0.002282 -0.040193 -0.035852 0.083078 25.239100 -40.985400 0.000008 0.000006 6.759090 8.592780 -72.356600 -11.754300 -0.000006 -0.000006 -0.001681 -0.024651 -17.575500
0.000000 0.000000 0.000000 0.000000 0.000000 -0.000000 -4.530810 91.278600 2.754360 90.085700 11.602100 2.526820 15.735700 0.000005 -0.000001 112.180000 85.930500 -115.131000 8.984550 -0.406207 -0.000000 -0.137156 3.275230 -5.895600 16.377300 -0.000001 -0.000001 8.032930 -8.109690 4.066700 6.456720 -0.000001 -0.000000 0.812105 -7.021450 -9.810820 12.994200 -0.242716 4.980390 -92.047300 5.590340 -69.849200 5.348090 -0.000007 -0.000001 -61.417300 23.284100 -9.171130 24.328600 0.000019 0.000005 7.439610 19.288400 -21.569700 22.291600 -0.000001 0.000005 14.715000 5.165940 3.559730 12.994500 -0.242716 -4.980390 94.056600 -10.794700 -69.260400 -5.348130 -0.000001 -0.000004 -50.998700 -60.796500 -99.249500 -24.328900 0.000322 -0.000009 -1.342010 -1.574100 -40.428600 -22.291500 -0.000108 -0.000004 16.896800 5.487730 -6.047510 -2.192480 -6.469440 -0.000000 -173.522000 -6.200170 -5.781400 39.081100 -0.000007 -0.000012 -0.204808 0.421824 25.898300 40.985400 -0.000006 -0.000013 -1.352480 13.396800 -67.910300 11.754300 -0.000000 0.000003 -0.000304 -0.002632 -16.675600 -2.192510 6.469440 -0.000001 177.454000 31.727200 179.039000 -39.081100 -0.002282 -0.040193 -0.048256 0.109166 25.285000 -40.985400 0.000008 0.000006 6.441180 8.796970 -72.210000 -11.754300 -0.000006 -0.000006 -0.001525 -0.022607 -17.492400
0.000000 0.000000 0.000000 0.000000 0.000000 -0.000000 -4.411290 91.285300 2.652710 90.033400 11.005700 2.577840 15.735700 0.000005 -0.000001 111.393000 85.918400 -114.210000 8.984550 -0.406207 -0.000000 -0.080238 3.169640 -5.629140 16.377300 -0.000001 -0.000001 7.958410 -8.163520 4.081110 6.456720 -0.000001 -0.000000 0.886981 -6.954890 -9.751000 12.994200 -0.242716 4.980390 -92.073700 5.687790 -69.930100 5.348090 -0.000007 -0.000001 -60.931200 23.355400 -9.663850 24.328600 0.000019 0.000005 7.638470 18.831100 -22.562500 22.291600 -0.000001 0.000005 15.015300 5.169710 3.467090 12.994500 -0.242716 -4.980390 93.899400 -10.567400 -69.611200 -5.348130 -0.000001 -0.000004 -50.390500 -60.211400 -97.591000 -24.328900 0.000322 -0.000009 -2.264230 -2.459800 -42.630500 -22.291500 -0.000108 -0.000004 17.293900 5.487600 -6.042130 -2.192480 -6.469440 -0.000000 -173.571000 -6.424990 -5.721210 39.081100 -0.000007 -0.000012 -0.204531 0.419859 25.973000 40.985400 -0.000006 -0.000013 -1.329210 13.031200 -67.964500 11.754300 -0.000000 0.000003 -0.000332 -0.002832 -16.682700 -2.192510 6.469440 -0.000001 177.477000 31.154000 178.900000 -39.081100 -0.002282 -0.040193 -0.048688 0.109649 25.371800 -40.985400 0.000008 0.000006 6.376550 8.845100 -72.116400 -11.754300 -0.000006 -0.000006 -0.001579 -0.023314 -17.521100
0.000000 0.000000 0.000000 0.000000 0.000000 -0.000000 -4.273540 91.288300 2.559310 89.986300 10.301400 2.685920 15.735700 0.000005 -0.000001 109.905000 85.907500 -112.617000 8.984550 -0.406207 -0.000000 0.006853 2.969450 -5.421390 16.377300 -0.000001 -0.000001 7.827010 -8.178090 4.032400 6.456720 -0.000001 -0.000000 1.047090 -6.867510 -9.529470 12.994200 -0.242716 4.980390 -92.087800 5.768150 -70.062900 5.348090 -0.000007 -0.000001 -60.602800 23.402700 -10.044700 24.328600 0.000019 0.000005 7.644780 18.373100 -23.065800 22.291600 -0.000001 0.000005 15.308200 5.172380 3.402660 12.994500 -0.242716 -4.980390 93.548600 -10.007900 -70.361800 -5.348130 -0.000001 -0.000004 -48.707900 -59.136700 -94.288300 -24.328900 0.000322 -0.000009 -3.740410 -3.653390 -45.714400 -22.291500 -0.000108 -0.000004 17.582400 5.491710 -6.202770 -2.192480 -6.469440 -0.000000 -173.621000 -6.805290 -5.581470 39.081100 -0.000007 -0.000012 -0.205734 0.420595 26.065900 40.985400 -0.000006 -0.000013 -1.266640 12.730700 -68.048700 11.754300 -0.000000 0.000003 -0.000317 -0.002724 -16.678900 -2.192510 6.469440 -0.000001 177.373000 30.709100 178.839000 -39.081100 -0.002282 -0.040193 -0.058614 0.129930 25.482700 -40.985400 0.000008 0.000006 6.228350 9.182850 -72.020000 -11.754300 -0.000006 -0.000006 -0.001656 -0.024327 -17.562300
0.000000 0.000000 0.000000 0.000000 0.000000 -0.000000 -4.109940 91.282900 2.470410 89.928400 9.479810 2.845170 15.735700 0.000005 -0.000001 108.323000 85.894800 -110.927000 8.984550 -0.406207 -0.000000 0.096869 2.754590 -5.207310 16.377300 -0.000001 -0.000001 7.625500 -8.113710 3.963940 6.456720 -0.000001 -0.000000 1.259470 -6.803920 -9.412000 12.994200 -0.242716 4.980390 -92.088400 5.814970 -70.205200 5.348090 -0.000007 -0.000001 -60.411900 23.808900 -10.481600 24.328600 0.000019 0.000005 7.434570 18.028800 -22.861400 22.291600 -0.000001 0.000005 15.379300 5.173080 3.385260 12.994500 -0.242716 -4.980390 93.109700 -9.297710 -71.415000 -5.348130 -0.000001 -0.000004 -45.994500 -57.436100 -89.174200 -24.328900 0.000322 -0.000009 -5.597420 -4.767810 -49.685200 -22.291500 -0.000108 -0.000004 18.145300 5.500300 -6.544630 -2.192480 -6.469440 -0.000000 -173.655000 -7.344220 -5.390120 39.081100 -0.000007 -0.000012 -0.205021 0.416326 26.218400 40.985400 -0.000006 -0.000013 -1.183000 12.426300 -68.179200 11.754300 -0.000000 0.000003 -0.000318 -0.002733 -16.679200 -2.192510 6.469440 -0.000001 177.201000 30.211300 178.837000 -39.081100 -0.002282 -0.040193 -0.073730 0.160711 25.611900 -40.985400 0.000008 0.000006 5.915040 9.662120 -71.901000 -11.754300 -0.000006 -0.000006 -0.001702 -0.024922 -17.586500
0.000000 0.000000 0.000000 0.000000 0.000000 -0.000000 -3.915650 91.279400 2.389230 89.843000 8.474450 3.020520 15.735700 0.000005 -0.000001 107.471000 85.865300 -109.963000 8.984550 -0.406207 -0.000000 0.185015 2.646710 -4.984340 16.377300 -0.000001 -0.000001 7.361320 -7.944510 3.776860 6.456720 -0.000001 -0.000000 1.465520 -6.821240 -9.195660 12.994200 -0.242716 4.980390 -92.107200 5.905820 -70.323400 5.348090 -0.000007 -0.000001 -60.294300 24.469400 -11.055200 24.328600 0.000019 0.000005 7.232980 18.210700 -22.102400 22.291600 -0.000001 0.000005 15.234500 5.170900 3.438460 12.994500 -0.242716 -4.980390 92.566600 -8.227100 -72.608000 -5.348130 -0.000001 -0.000004 -42.460200 -54.943300 -82.635100 -24.328900 0.000322 -0.000009 -6.829850 -4.910080 -54.443000 -22.291500 -0.000108 -0.000004 18.991200 5.507830 -6.850790 -2.192480 -6.469440 -0.000000 -173.661000 -8.004930 -5.144150 39.081100 -0.000007 -0.000012 -0.206507 0.416663 26.364300 40.985400 -0.000006 -0.000013 -1.093280 12.085900 -68.332400 11.754300 -0.000000 0.000003 -0.000296 -0.002573 -16.673500 -2.192510 6.469440 -0.000001 177.030000 29.715200 178.845000 -39.081100 -0.002282 -0.040193 -0.085229 0.183753 25.726700 -40.985400 0.000008 0.000006 5.673290 10.277900 -71.777400 -11.754300 -0.000006 -0.000006 -0.001417 -0.021168 -17.433900
0.000000 0.000000 0.000000 0.000000 0.000000 -0.000000 -3.708240 91.279300 2.311540 89.748100 7.392160 3.194870 15.735700 0.000005 -0.000001 106.849000 85.835100 -109.237000 8.984550 -0.406207 -0.000000 0.265032 2.570010 -4.779020 16.377300 -0.000001 -0.000001 7.019790 -7.715020 3.408600 6.456720 -0.000001 -0.000000 1.615770 -6.832140 -8.742000 12.994200 -0.242716 4.980390 -92.141700 6.001760 -70.320100 5.348090 -0.000007 -0.000001 -60.174200 25.581600 -11.720100 24.328600 0.000019 0.000005 6.932580 18.430300 -21.036500 22.291600 -0.000001 0.000005 15.033600 5.165440 3.571490 12.994500 -0.242716 -4.980390 91.948500 -6.691920 -73.726700 -5.348130 -0.000001 -0.000004 -39.281700 -51.303200 -75.802600 -24.328900 0.000322 -0.000009 -7.041930 -4.127510 -59.772300 -22.291500 -0.000108 -0.000004 19.563000 5.510030 -6.944340 -2.192480 -6.469440 -0.000000 -173.664000 -8.746230 -4.879620 39.081100 -0.000007 -0.000012 -0.206621 0.414456 26.498200 40.985400 -0.000006 -0.000013 -0.996339 11.720100 -68.485700 11.754300 -0.000000 0.000003 -0.000301 -0.002609 -16.674700 -2.192510 6.469440 -0.000001 176.858000 29.268800 178.853000 -39.081100 -0.002282 -0.040193 -0.094832 0.202755 25.829100 -40.985400 0.000008 0.000006 5.553020 10.980900 -71.667700 -11.754300 -0.000006 -0.000006 -0.001501 -0.022284 -17.479200
0.000000 0.000000 0.000000 0.000000 0.000000 -0.000000 -3.504410 91.269800 2.228010 89.625100 6.335480 3.368210 15.735700 0.000005 -0.000001 106.111000 85.805100 -108.377000 8.984550 -0.406207 -0.000000 0.347944 2.474090 -4.536410 16.377300 -0.000001 -0.000001 6.636590 -7.371520 2.941560 6.456720 -0.000001 -0.000000 1.627890 -6.821720 -8.363530 12.994200 -0.242716 4.980390 -92.190600 6.132590 -70.299200 5.348090 -0.000007 -0.000001 -60.365500 26.300200 -12.201100 24.328600 0.000019 0.000005 6.720980 18.849300 -20.039400 22.291600 -0.000001 0.000005 14.745700 5.156910 3.777550 12.994500 -0.242716 -4.980390 91.269700 -4.695850 -74.855500 -5.348130 -0.000001 -0.000004 -36.065800 -46.672400 -68.574300 -24.328900 0.000322 -0.000009 -6.761540 -3.142540 -65.181600 -22.291500 -0.000108 -0.000004 19.948400 5.500720 -6.563030 -2.192480 -6.469440 -0.000000 -173.664000 -9.217560 -4.655060 39.081100 -0.000007 -0.000012 -0.206505 0.410704 26.693900 40.985400 -0.000006 -0.000013 -0.943235 11.166000 -68.681300 11.754300 -0.000000 0.000003 -0.000282 -0.002467 -16.669700 -2.192510 6.469440 -0.000001 176.718000 28.853200 178.838000 -39.081100 -0.002282 -0.040193 -0.104415 0.221227 25.963600 -40.985400 0.000008 0.000006 5.435500 11.688900 -71.569200 -11.754300 -0.000006 -0.000006 -0.001489 -0.022126 -17.472800
